<svg xmlns="http://www.w3.org/2000/svg" viewBox="0 0 640 420" role="img" aria-label="Expense timeline view">
  <rect width="640" height="420" fill="#0a0f17"/>
  <rect x="34" y="24" width="572" height="372" rx="18" fill="#111a29" stroke="#2f3955"/>
  <rect x="58" y="52" width="526" height="60" rx="12" fill="#182337"/>
  <rect x="82" y="76" width="190" height="14" rx="6" fill="#e8efff"/>
  <rect x="452" y="72" width="110" height="22" rx="8" fill="#ff9b49"/>
  <rect x="58" y="132" width="526" height="240" rx="12" fill="#182337"/>
  <rect x="82" y="154" width="482" height="194" rx="12" fill="#0f1523" stroke="#2f3a56"/>
  <line x1="102" y1="318" x2="542" y2="318" stroke="#33405d" stroke-width="2"/>
  <line x1="102" y1="286" x2="542" y2="286" stroke="#2a344d" stroke-width="2"/>
  <line x1="102" y1="254" x2="542" y2="254" stroke="#253049" stroke-width="2"/>
  <line x1="102" y1="222" x2="542" y2="222" stroke="#222c43" stroke-width="2"/>
  <path d="M108 300 L152 272 L196 282 L238 242 L282 260 L328 214 L372 226 L418 188 L462 202 L508 170 L538 182" stroke="#ff9b49" stroke-width="5" fill="none" stroke-linecap="round"/>
  <path d="M108 320 L152 306 L196 310 L238 292 L282 300 L328 278 L372 286 L418 262 L462 272 L508 250 L538 258" stroke="#7aa8ff" stroke-width="4" fill="none" stroke-linecap="round"/>
  <circle cx="508" cy="170" r="7" fill="#ff9b49"/>
  <rect x="448" y="136" width="120" height="28" rx="9" fill="#1f2940" stroke="#3c4868"/>
  <rect x="460" y="146" width="96" height="10" rx="5" fill="#dce8ff"/>
</svg>
