<svg xmlns="http://www.w3.org/2000/svg" viewBox="0 0 640 420" role="img" aria-label="Expense tracker dashboard">
  <rect width="640" height="420" fill="#0d1119"/>
  <rect x="34" y="26" width="572" height="368" rx="18" fill="#121927" stroke="#2f3954"/>
  <rect x="58" y="50" width="178" height="24" rx="8" fill="#f0a35e"/>
  <rect x="246" y="50" width="178" height="24" rx="8" fill="#25314b"/>
  <rect x="434" y="50" width="150" height="24" rx="8" fill="#25314b"/>
  <rect x="58" y="92" width="526" height="114" rx="12" fill="#1a2335"/>
  <rect x="78" y="114" width="180" height="70" rx="10" fill="#0f1522" stroke="#2d3953"/>
  <rect x="280" y="114" width="128" height="70" rx="10" fill="#0f1522" stroke="#2d3953"/>
  <rect x="430" y="114" width="134" height="70" rx="10" fill="#0f1522" stroke="#2d3953"/>
  <rect x="58" y="224" width="340" height="148" rx="12" fill="#1a2335"/>
  <rect x="418" y="224" width="166" height="148" rx="12" fill="#1a2335"/>
  <path d="M86 336 L132 286 L178 304 L224 258 L270 276 L318 240 L366 254" stroke="#ff9a46" stroke-width="5" fill="none" stroke-linecap="round"/>
  <rect x="438" y="250" width="126" height="16" rx="6" fill="#dce8ff"/>
  <rect x="438" y="278" width="104" height="12" rx="5" fill="#8ea4d1"/>
  <rect x="438" y="300" width="114" height="12" rx="5" fill="#8ea4d1"/>
  <rect x="438" y="328" width="126" height="24" rx="8" fill="#ff9a46"/>
</svg>
