<svg xmlns="http://www.w3.org/2000/svg" viewBox="0 0 640 420" role="img" aria-label="Expense categories view">
  <rect width="640" height="420" fill="#0b1018"/>
  <rect x="36" y="24" width="568" height="372" rx="18" fill="#121a29" stroke="#2e3853"/>
  <rect x="58" y="52" width="236" height="324" rx="14" fill="#1a2438"/>
  <rect x="314" y="52" width="268" height="324" rx="14" fill="#1a2438"/>
  <rect x="82" y="78" width="190" height="16" rx="6" fill="#e6efff"/>
  <rect x="82" y="106" width="142" height="12" rx="5" fill="#96a9d1"/>
  <circle cx="175" cy="236" r="92" fill="#0f1522" stroke="#2f3a55" stroke-width="20"/>
  <path d="M175 236 L175 146 A90 90 0 0 1 256 274 Z" fill="#ff9b49"/>
  <path d="M175 236 L256 274 A90 90 0 0 1 126 317 Z" fill="#7aa8ff"/>
  <path d="M175 236 L126 317 A90 90 0 0 1 92 180 Z" fill="#5ed3a2"/>
  <path d="M175 236 L92 180 A90 90 0 0 1 175 146 Z" fill="#ffd181"/>
  <rect x="340" y="82" width="214" height="18" rx="6" fill="#e6efff"/>
  <rect x="340" y="118" width="18" height="18" rx="5" fill="#ff9b49"/>
  <rect x="368" y="122" width="146" height="10" rx="5" fill="#9eb2da"/>
  <rect x="340" y="152" width="18" height="18" rx="5" fill="#7aa8ff"/>
  <rect x="368" y="156" width="162" height="10" rx="5" fill="#9eb2da"/>
  <rect x="340" y="186" width="18" height="18" rx="5" fill="#5ed3a2"/>
  <rect x="368" y="190" width="132" height="10" rx="5" fill="#9eb2da"/>
  <rect x="340" y="220" width="18" height="18" rx="5" fill="#ffd181"/>
  <rect x="368" y="224" width="120" height="10" rx="5" fill="#9eb2da"/>
  <rect x="340" y="268" width="214" height="84" rx="10" fill="#0f1522" stroke="#2f3a55"/>
  <path d="M358 336 L390 312 L426 320 L466 290 L502 306 L544 284" stroke="#ff9b49" stroke-width="5" fill="none" stroke-linecap="round"/>
</svg>
